# xmcd
#
# Track frame offsets:
#	150
#	13852
#	26610
#	38642
#	52760
#	65315
#	77222
#	90835
#	107310
#	120752
#	134757
#	147800
#	159150
#	173530
#
# Disc length: 2524 seconds
#
# Revision: 0
# Processed by: cddbd v1.5.2PL0 Copyright (c) Steve Scherf et al.
# Submitted via: dBpowerAMP V4.0
#
DISCID=9809da0e
DTITLE=Praiao and Prainha - Bis Sertanejo
DYEAR=1994
DGENRE=Sertanejo
TTITLE0=Camas Separadas
TTITLE1=Viola Dourada
TTITLE2=Nao Me Despreze
TTITLE3=Droga de Vida
TTITLE4=Quem Ama Perdoa
TTITLE5=Despeito
TTITLE6=Remedio para Despeito e Beber
TTITLE7=Canarinho Prisioneiro
TTITLE8=Minha Dor
TTITLE9=Nao Teras Meu Abrigo
TTITLE10=Pisando no Calo
TTITLE11=Nao Entro Naquele Bar
TTITLE12=Minha Vida e Você
TTITLE13=Desprezo da Linda Cigana
EXTD=
EXTT0=
EXTT1=
EXTT2=
EXTT3=
EXTT4=
EXTT5=
EXTT6=
EXTT7=
EXTT8=
EXTT9=
EXTT10=
EXTT11=
EXTT12=
EXTT13=
PLAYORDER=
